<?xml version="1.0" standalone="no"?>
<!DOCTYPE svg PUBLIC "-//W3C//DTD SVG 20010904//EN"
 "http://www.w3.org/TR/2001/REC-SVG-20010904/DTD/svg10.dtd">
<svg version="1.0" xmlns="http://www.w3.org/2000/svg"
 width="260.000000pt" height="260.000000pt" viewBox="0 0 260.000000 260.000000"
 preserveAspectRatio="xMidYMid meet">
<metadata>
Created by potrace 1.11, written by Peter Selinger 2001-2013
</metadata>
<g transform="translate(0.000000,260.000000) scale(0.100000,-0.100000)"
fill="#000000" stroke="none">
<path d="M0 1300 l0 -1300 1300 0 1300 0 0 1300 0 1300 -1300 0 -1300 0 0
-1300z m1318 -187 l-3 -578 -27 -57 c-72 -154 -208 -236 -408 -245 -180 -9
-307 31 -400 127 -52 53 -115 169 -126 232 -7 42 -20 36 138 68 53 10 107 22
121 25 22 6 26 1 46 -55 12 -33 35 -76 51 -94 74 -83 221 -69 272 26 23 43 23
46 26 461 l3 417 -240 0 -241 0 0 125 0 125 395 0 396 0 -3 -577z"/>
</g>
</svg>
